<?xml version="1.0" encoding="UTF-8"?> <svg xmlns="http://www.w3.org/2000/svg" width="275" height="82" viewBox="25 209 275 82" fill="none"><g clip-path="url(#clip0_7_2)"><mask id="mask0_7_2" style="mask-type:luminance" maskUnits="userSpaceOnUse" x="25" y="209" width="450" height="82"><path d="M475 209H25V290.148H475V209Z" fill="white"></path></mask><g mask="url(#mask0_7_2)"><path d="M298.087 209H52.0202C48.8705 209 46.0759 210.887 45.0492 213.693L26.0972 265.518C21.6892 277.577 31.1768 290.148 44.6941 290.148H273.461C276.603 290.148 279.406 288.267 280.432 285.462L305.058 218.24C306.718 213.715 303.159 209 298.087 209Z" fill="#B6DE13"></path><path d="M222.093 230.314C221.305 234.067 219.839 237.558 219.839 237.558H203.211L205.21 232.107H194.464C182.768 232.107 180.538 235.612 177.025 245.202L173.497 254.864C172.64 257.261 172.108 259.141 171.961 260.686C171.482 265.816 175.141 266.501 181.842 266.501C190.365 266.501 193.252 264.709 196.286 256.409H186.065V245.457H212.467C214.852 245.457 216.527 247.672 215.755 249.8L213.563 255.804C206.268 275.829 199.497 279.508 177.017 279.508C160.968 279.508 152.098 277.453 153.132 266.246C153.364 263.761 154.105 260.686 155.433 257.094L161.122 241.689C168.379 222.095 180.7 219.187 199.196 219.187C212.791 219.187 224.224 220.178 222.093 230.314Z" fill="#0A234F"></path><path d="M253.32 257.487L254.979 231.735H254.802L223.027 279.224H205.627L243.199 224.244C245.075 221.504 248.294 219.843 251.752 219.843H266.49C269.268 219.843 271.484 222.022 271.376 224.638L269.076 279.217H251.945L252.44 269.037H237.741V257.487H253.335H253.32Z" fill="#0A234F"></path><path d="M109.122 219.872L93.868 261.517C90.6336 270.349 97.5348 279.56 107.431 279.654C113.052 279.705 118.672 279.698 124.284 279.632C134.644 279.501 143.784 273.213 147.173 263.973L163.315 219.901C163.315 219.901 163.299 219.836 163.269 219.836H146.563C146.563 219.836 146.524 219.843 146.517 219.865L131.502 260.971C130.552 263.572 128.067 265.416 125.164 265.663C120.717 266.035 116.549 266.021 112.658 265.598C110.929 265.408 109.809 263.776 110.38 262.224L125.882 219.901C125.882 219.901 125.866 219.836 125.835 219.836H109.176C109.176 219.836 109.138 219.85 109.13 219.865L109.122 219.872Z" fill="#0A234F"></path><path d="M100.205 219.843L85.1595 260.912C79.339 276.827 73.2632 279.734 55.6855 279.734C42.9942 279.734 38.4705 277.68 39.1575 270.239C39.1575 270.225 39.1575 270.203 39.1575 270.203C39.3582 268.17 39.8446 266.166 40.5548 264.228L41.9135 260.512H57.4611L55.4616 265.962H60.7651C65.9297 265.962 67.0492 264.68 68.3922 260.912L83.438 219.843H100.205Z" fill="#0A234F"></path><path d="M317.177 223.494C317.949 221.373 320.064 219.952 322.442 219.952H351.561C361.897 219.952 368.104 221.41 367.386 229.192C367.232 230.817 366.684 232.872 365.834 235.182C363.055 242.709 359.79 247.592 350.966 248.874L350.727 249.472C356.941 249.902 358.786 252.467 358.416 256.489C358.238 258.369 357.589 260.511 356.74 262.821C351.406 277.366 343.516 279.334 330.192 279.334H304.439C300.672 279.334 298.032 275.829 299.259 272.47L317.184 223.494H317.177ZM338.746 243.737C344.543 243.737 346.265 242.797 348.071 238.002C348.442 236.975 348.696 236.122 348.774 235.35C348.928 233.725 348.001 232.952 344.643 232.952H330.501L318.257 266.319H330.949C336.391 266.319 339.039 265.124 340.838 260.33C341.208 259.302 341.463 258.449 341.54 257.677C341.772 255.192 339.911 254.682 335.565 254.682H326.61V243.73H338.753L338.746 243.737Z" fill="white"></path><path d="M356.934 272.55L374.828 223.705C375.654 221.461 377.893 219.952 380.41 219.952H421.62L416.876 232.96H388.238L375.994 266.327H405.184L400.444 279.334H362.068C358.347 279.334 355.73 275.873 356.949 272.55H356.934ZM384.231 254.777H406.803L410.757 243.824H384.231V254.777Z" fill="white"></path><path d="M425.238 219.952H475L470.282 232.96H420.52L425.238 219.952ZM436.414 279.334H419.65L436.661 232.96L451.854 237.237L436.425 279.334H436.414Z" fill="white"></path></g></g><defs><clipPath id="clip0_7_2"><rect width="450" height="81.1475" fill="white" transform="translate(25 209)"></rect></clipPath></defs></svg> 